<svg width="32" height="32" viewBox="0 0 32 32" fill="none" xmlns="http://www.w3.org/2000/svg">
<path d="M16.0398 24.3608C14.2624 22.0899 13.2468 20.1286 12.8914 18.3738C11.3171 12.0256 20.8132 12.0256 19.239 18.3738C18.8327 20.1286 17.7663 22.1931 16.0398 24.3608ZM25.6882 29.5736C22.7429 30.8639 19.7976 28.7994 17.3093 26.0124C24.6218 16.7223 20.6101 11.6643 16.0398 11.6643C12.1804 11.6643 10.0476 14.9158 10.9109 18.8383C11.4187 20.9544 12.6882 23.277 14.7703 25.9608C12.4851 28.4898 10.5554 29.7285 8.77809 29.8833C5.2742 30.451 2.53203 26.993 3.85234 23.4318C4.91874 20.6448 11.7234 6.916 12.0281 6.19343C13.0945 4.02573 13.8054 2.11609 16.1921 2.11609C18.4773 2.11609 19.2898 3.9225 20.4069 6.39988C22.9968 11.4062 26.7038 19.0448 28.4811 23.4318C29.2428 25.7543 28.278 28.4898 25.6882 29.5736ZM29.0397 19.8706C19.9499 0.309671 19.4421 0 16.0398 0C12.8406 0 11.4695 2.27092 10.0984 5.16119C2.58281 20.3867 1.92266 22.4512 1.77031 22.7092C0.0437582 27.664 3.69999 31.9994 8.06716 31.9994C9.59059 31.9994 12.3835 31.5865 15.989 27.5608C20.153 32.1542 23.1491 31.9994 23.9108 31.9994C28.3288 31.9994 31.985 27.6124 30.2077 22.7092C30.2585 22.3996 29.0397 19.9222 29.0397 19.8706Z" fill="white"/>
</svg>
