<svg width="32" height="32" viewBox="0 0 32 32" fill="none" xmlns="http://www.w3.org/2000/svg">
<path d="M18.1286 32H14.1939C13.185 32 12.3778 31.1447 12.3778 30.0881V18.1132H9.14936C8.14046 18.1132 7.33334 17.2579 7.33334 16.2013V12.7296C7.33334 11.673 8.14046 10.8176 9.14936 10.8176H12.277V7.6478C12.277 3.06918 15.001 0 19.0366 0H22.0633C23.0722 0 23.8793 0.855346 23.8793 1.91195V5.98742C23.8793 7.04403 23.0722 7.89937 22.0633 7.89937H19.995C19.9446 7.89937 19.9446 7.89937 19.8942 7.89937C19.8942 7.94969 19.8942 8 19.8942 8.05031V10.7673H22.7695C23.3749 10.8176 23.8793 11.0692 24.2324 11.4717C24.5855 11.9245 24.7369 12.5283 24.636 13.0818L24.0307 16.5031C23.9298 17.4088 23.1731 18.0629 22.2146 18.0629H19.8942V30.0881C19.8942 31.0943 19.087 32 18.1286 32ZM13.2354 16.3522C13.7399 16.3522 14.1434 16.7547 14.1434 17.2579V30.0881C14.1434 30.1887 14.1939 30.239 14.1939 30.239H18.1286C18.1286 30.239 18.179 30.1887 18.179 30.0881V17.1572C18.179 16.6541 18.5826 16.2516 19.087 16.2516H22.2651C22.2651 16.2516 22.3155 16.2516 22.3155 16.2013V16.1509L22.9209 12.7799C22.9209 12.6792 22.9209 12.6289 22.8704 12.5786C22.8704 12.5786 22.82 12.5283 22.7695 12.5283H19.0366C18.5321 12.5283 18.1286 12.1258 18.1286 11.6226V8.05031C18.1286 7.14465 18.2799 6.13836 19.995 6.13836H22.0633C22.0633 6.13836 22.1137 6.08805 22.1137 5.98742V1.96226C22.1137 1.86164 22.0633 1.81132 22.0633 1.81132H19.087C16.0603 1.81132 14.093 4.12579 14.093 7.69811V11.7736C14.093 12.2767 13.6894 12.6792 13.185 12.6792H9.14936C9.14936 12.6792 9.09892 12.7296 9.09892 12.8302V16.3019C9.09892 16.4025 9.14936 16.4528 9.14936 16.4528L13.2354 16.3522Z" fill="white"/>
</svg>
