<svg width="36" height="36" viewBox="0 0 36 36" fill="none" xmlns="http://www.w3.org/2000/svg">
<path d="M31.2524 24.0195L20.6505 18.4675C20.767 18.1169 20.6505 17.6494 20.301 17.4156C19.8932 17.0649 19.2524 17.1234 18.8447 17.5325C18.7282 17.7078 18.2621 17.8247 17.7379 17.7078C17.2718 17.5909 16.9806 17.2403 16.9223 16.7143C16.8641 15.9545 17.2136 15.4286 18.0874 15.0779C18.6699 14.8442 19.0777 14.2597 19.0194 13.6169V9.81818C21.233 9.35065 22.8641 7.36364 22.8641 4.96753C22.8641 2.22078 20.6505 0 17.9126 0C15.1748 0 12.9612 2.22078 12.9612 4.96753C12.9612 7.36364 14.6505 9.35065 16.9223 9.81818L16.9806 13.2662C15.5243 14.026 14.7087 15.3117 14.8835 16.8896C14.9417 17.474 15.1165 17.9416 15.4078 18.4091L4.74757 24.0195C3.87379 24.4286 3.29126 25.2468 3.05825 26.1818C3.05825 26.1818 3.05825 26.1818 3.05825 26.2403C3 26.474 3 26.7078 3 26.9416V32.7273C3 34.539 4.45631 36 6.26214 36H29.7379C31.5437 36 33 34.539 33 32.7273V26.9416C33 25.6558 32.301 24.5455 31.2524 24.0195ZM15.0583 4.96753C15.0583 3.33117 16.3398 2.04545 17.9709 2.04545C19.6019 2.04545 20.8835 3.33117 20.8835 4.96753C20.8835 6.6039 19.6019 7.88961 17.9709 7.88961C16.3398 7.88961 15.0583 6.6039 15.0583 4.96753ZM17.3301 19.7532L17.3883 19.6948C17.6796 19.7532 17.9126 19.8117 18.2039 19.8117C18.3786 19.8117 18.5534 19.8117 18.7282 19.7532L29.4466 25.3636H6.5534L17.3301 19.7532ZM29.7379 33.9545H6.20388C5.50485 33.9545 4.98058 33.3701 4.98058 32.7273V27.4675H30.9612V32.7273C30.9612 33.3701 30.3786 33.9545 29.7379 33.9545Z" fill="#52503B"/>
</svg>
